<mxfile host="Electron" modified="2024-10-29T07:17:48.419Z" agent="Mozilla/5.0 (Macintosh; Intel Mac OS X 10_15_7) AppleWebKit/537.36 (KHTML, like Gecko) draw.io/21.8.2 Chrome/114.0.5735.289 Electron/25.8.1 Safari/537.36" etag="NXsSrcEPBGPp5VjoZsFL" version="21.8.2" type="device" pages="6">
  <diagram id="CjUazIyox-rqeOIU664x" name="containers">
    <mxGraphModel dx="983" dy="890" grid="1" gridSize="10" guides="1" tooltips="1" connect="1" arrows="1" fold="1" page="1" pageScale="1" pageWidth="827" pageHeight="1169" math="0" shadow="0">
      <root>
        <mxCell id="0" />
        <mxCell id="1" parent="0" />
        <object placeholders="1" c4Type="Relationship" id="DPiyH72D8_Km8HQRfrTz-13">
          <mxCell style="endArrow=blockThin;html=1;fontSize=10;fontColor=#404040;strokeWidth=1;endFill=1;strokeColor=#828282;elbow=vertical;metaEdit=1;endSize=14;startSize=14;jumpStyle=arc;jumpSize=16;rounded=0;edgeStyle=orthogonalEdgeStyle;dashed=1;" parent="1" source="DPiyH72D8_Km8HQRfrTz-3" target="DPiyH72D8_Km8HQRfrTz-6" edge="1">
            <mxGeometry width="240" relative="1" as="geometry">
              <mxPoint x="260" y="620" as="sourcePoint" />
              <mxPoint x="500" y="620" as="targetPoint" />
            </mxGeometry>
          </mxCell>
        </object>
        <object placeholders="1" c4Name="Jmix Security" c4Type="SystemScopeBoundary" c4Application="Software System" label="&lt;font style=&quot;font-size: 16px&quot;&gt;&lt;b&gt;&lt;div style=&quot;text-align: left&quot;&gt;%c4Name%&lt;/div&gt;&lt;/b&gt;&lt;/font&gt;&lt;div style=&quot;text-align: left&quot;&gt;[%c4Application%]&lt;/div&gt;" id="DPiyH72D8_Km8HQRfrTz-1">
          <mxCell style="rounded=1;fontSize=11;whiteSpace=wrap;html=1;dashed=1;arcSize=20;fillColor=none;strokeColor=#666666;fontColor=#333333;labelBackgroundColor=none;align=left;verticalAlign=bottom;labelBorderColor=none;spacingTop=0;spacing=10;dashPattern=8 4;metaEdit=1;rotatable=0;perimeter=rectanglePerimeter;noLabel=0;labelPadding=0;allowArrows=0;connectable=0;expand=0;recursiveResize=0;editable=1;pointerEvents=0;absoluteArcSize=1;points=[[0.25,0,0],[0.5,0,0],[0.75,0,0],[1,0.25,0],[1,0.5,0],[1,0.75,0],[0.75,1,0],[0.5,1,0],[0.25,1,0],[0,0.75,0],[0,0.5,0],[0,0.25,0]];" parent="1" vertex="1">
            <mxGeometry x="100" y="330" width="680" height="370" as="geometry" />
          </mxCell>
        </object>
        <object placeholders="1" c4Name="Jmix Application 1" c4Type="Container" c4Technology="JVM, Spring Boot" c4Description="Web application.&#xa;Provides configuration of role policies and authorization of user actions according to the policies." label="&lt;font style=&quot;font-size: 16px&quot;&gt;&lt;b&gt;%c4Name%&lt;/b&gt;&lt;/font&gt;&lt;div&gt;[%c4Type%: %c4Technology%]&lt;/div&gt;&lt;br&gt;&lt;div&gt;&lt;font style=&quot;font-size: 11px&quot;&gt;&lt;font color=&quot;#E6E6E6&quot;&gt;%c4Description%&lt;/font&gt;&lt;/div&gt;" id="DPiyH72D8_Km8HQRfrTz-3">
          <mxCell style="rounded=1;whiteSpace=wrap;html=1;fontSize=11;labelBackgroundColor=none;fillColor=#1061B0;fontColor=#ffffff;align=center;arcSize=10;strokeColor=#0D5091;metaEdit=1;resizable=1;points=[[0.25,0,0],[0.5,0,0],[0.75,0,0],[1,0.25,0],[1,0.5,0],[1,0.75,0],[0.75,1,0],[0.5,1,0],[0.25,1,0],[0,0.75,0],[0,0.5,0],[0,0.25,0]];" parent="1" vertex="1">
            <mxGeometry x="520" y="360" width="240" height="140" as="geometry" />
          </mxCell>
        </object>
        <object c4Name="User" c4Type="Person" c4Description="User with a web browser" label="&lt;font style=&quot;font-size: 16px&quot;&gt;&lt;b&gt;%c4Name%&lt;/b&gt;&lt;/font&gt;&lt;div&gt;[%c4Type%]&lt;/div&gt;&lt;br&gt;&lt;div&gt;&lt;font style=&quot;font-size: 11px&quot;&gt;&lt;font color=&quot;#cccccc&quot;&gt;%c4Description%&lt;/font&gt;&lt;/div&gt;" placeholders="1" id="DPiyH72D8_Km8HQRfrTz-4">
          <mxCell style="html=1;fontSize=11;dashed=0;whitespace=wrap;fillColor=#083F75;strokeColor=#06315C;fontColor=#ffffff;shape=mxgraph.c4.person2;align=center;metaEdit=1;points=[[0.5,0,0],[1,0.5,0],[1,0.75,0],[0.75,1,0],[0.5,1,0],[0.25,1,0],[0,0.75,0],[0,0.5,0]];resizable=1;" parent="1" vertex="1">
            <mxGeometry x="350" y="190" width="157.5" height="130" as="geometry" />
          </mxCell>
        </object>
        <object placeholders="1" c4Name="OpenID Connect Server" c4Type="Container" c4Technology="Keycloak, Okta, etc." c4Description="Enables external authentication and SSO. &#xa;Provides a list of user&#39;s roles." label="&lt;font style=&quot;font-size: 16px&quot;&gt;&lt;b&gt;%c4Name%&lt;/b&gt;&lt;/font&gt;&lt;div&gt;[%c4Type%: %c4Technology%]&lt;/div&gt;&lt;br&gt;&lt;div&gt;&lt;font style=&quot;font-size: 11px&quot;&gt;&lt;font color=&quot;#E6E6E6&quot;&gt;%c4Description%&lt;/font&gt;&lt;/div&gt;" id="DPiyH72D8_Km8HQRfrTz-5">
          <mxCell style="rounded=1;whiteSpace=wrap;html=1;fontSize=11;labelBackgroundColor=none;fillColor=#23A2D9;fontColor=#ffffff;align=center;arcSize=10;strokeColor=#0E7DAD;metaEdit=1;resizable=1;points=[[0.25,0,0],[0.5,0,0],[0.75,0,0],[1,0.25,0],[1,0.5,0],[1,0.75,0],[0.75,1,0],[0.5,1,0],[0.25,1,0],[0,0.75,0],[0,0.5,0],[0,0.25,0]];" parent="1" vertex="1">
            <mxGeometry x="130" y="390" width="230" height="80" as="geometry" />
          </mxCell>
        </object>
        <object placeholders="1" c4Name="LDAP Server" c4Type="Container" c4Technology="Active Directory, etc." c4Description="Enables external authentication.&#xa;Provides a list of user&#39;s roles." label="&lt;font style=&quot;font-size: 16px&quot;&gt;&lt;b&gt;%c4Name%&lt;/b&gt;&lt;/font&gt;&lt;div&gt;[%c4Type%: %c4Technology%]&lt;/div&gt;&lt;br&gt;&lt;div&gt;&lt;font style=&quot;font-size: 11px&quot;&gt;&lt;font color=&quot;#E6E6E6&quot;&gt;%c4Description%&lt;/font&gt;&lt;/div&gt;" id="DPiyH72D8_Km8HQRfrTz-6">
          <mxCell style="rounded=1;whiteSpace=wrap;html=1;fontSize=11;labelBackgroundColor=none;fillColor=#23A2D9;fontColor=#ffffff;align=center;arcSize=10;strokeColor=#0E7DAD;metaEdit=1;resizable=1;points=[[0.25,0,0],[0.5,0,0],[0.75,0,0],[1,0.25,0],[1,0.5,0],[1,0.75,0],[0.75,1,0],[0.5,1,0],[0.25,1,0],[0,0.75,0],[0,0.5,0],[0,0.25,0]];" parent="1" vertex="1">
            <mxGeometry x="130" y="500" width="230" height="80" as="geometry" />
          </mxCell>
        </object>
        <object placeholders="1" c4Name="Jmix Application N" c4Type="Container" c4Technology="JVM, Spring Boot" c4Description="Web application.&#xa;Provides configuration of role policies and authorization of user actions according to the policies." label="&lt;font style=&quot;font-size: 16px&quot;&gt;&lt;b&gt;%c4Name%&lt;/b&gt;&lt;/font&gt;&lt;div&gt;[%c4Type%: %c4Technology%]&lt;/div&gt;&lt;br&gt;&lt;div&gt;&lt;font style=&quot;font-size: 11px&quot;&gt;&lt;font color=&quot;#E6E6E6&quot;&gt;%c4Description%&lt;/font&gt;&lt;/div&gt;" id="DPiyH72D8_Km8HQRfrTz-7">
          <mxCell style="rounded=1;whiteSpace=wrap;html=1;fontSize=11;labelBackgroundColor=none;fillColor=#23A2D9;fontColor=#ffffff;align=center;arcSize=10;strokeColor=#0D5091;metaEdit=1;resizable=1;points=[[0.25,0,0],[0.5,0,0],[0.75,0,0],[1,0.25,0],[1,0.5,0],[1,0.75,0],[0.75,1,0],[0.5,1,0],[0.25,1,0],[0,0.75,0],[0,0.5,0],[0,0.25,0]];" parent="1" vertex="1">
            <mxGeometry x="520" y="540" width="240" height="140" as="geometry" />
          </mxCell>
        </object>
        <mxCell id="DPiyH72D8_Km8HQRfrTz-9" value="&lt;b&gt;&lt;font style=&quot;font-size: 22px;&quot;&gt;...&lt;/font&gt;&lt;/b&gt;" style="text;html=1;strokeColor=none;fillColor=none;align=center;verticalAlign=middle;whiteSpace=wrap;rounded=0;rotation=90;" parent="1" vertex="1">
          <mxGeometry x="617" y="505" width="60" height="30" as="geometry" />
        </mxCell>
        <object placeholders="1" c4Type="Relationship" id="DPiyH72D8_Km8HQRfrTz-10">
          <mxCell style="endArrow=blockThin;html=1;fontSize=10;fontColor=#404040;strokeWidth=1;endFill=1;strokeColor=#828282;elbow=vertical;metaEdit=1;endSize=14;startSize=14;jumpStyle=arc;jumpSize=16;rounded=0;edgeStyle=orthogonalEdgeStyle;" parent="1" source="DPiyH72D8_Km8HQRfrTz-4" target="DPiyH72D8_Km8HQRfrTz-3" edge="1">
            <mxGeometry width="240" relative="1" as="geometry">
              <mxPoint x="550" y="260" as="sourcePoint" />
              <mxPoint x="790" y="260" as="targetPoint" />
              <Array as="points">
                <mxPoint x="640" y="280" />
              </Array>
            </mxGeometry>
          </mxCell>
        </object>
        <object placeholders="1" c4Type="Relationship" c4Description="Redirects for&#xa;authentication" label="&lt;div style=&quot;text-align: left&quot;&gt;&lt;div style=&quot;text-align: center&quot;&gt;&lt;b&gt;%c4Description%&lt;/b&gt;&lt;/div&gt;" id="DPiyH72D8_Km8HQRfrTz-12">
          <mxCell style="endArrow=blockThin;html=1;fontSize=10;fontColor=#404040;strokeWidth=1;endFill=1;strokeColor=#828282;elbow=vertical;metaEdit=1;endSize=14;startSize=14;jumpStyle=arc;jumpSize=16;rounded=0;edgeStyle=orthogonalEdgeStyle;dashed=1;" parent="1" source="DPiyH72D8_Km8HQRfrTz-3" target="DPiyH72D8_Km8HQRfrTz-5" edge="1">
            <mxGeometry y="-20" width="240" relative="1" as="geometry">
              <mxPoint x="160" y="490" as="sourcePoint" />
              <mxPoint x="400" y="490" as="targetPoint" />
              <mxPoint as="offset" />
            </mxGeometry>
          </mxCell>
        </object>
        <object placeholders="1" c4Type="Relationship" c4Description="Authenticates" label="&lt;div style=&quot;text-align: left&quot;&gt;&lt;div style=&quot;text-align: center&quot;&gt;&lt;b&gt;%c4Description%&lt;/b&gt;&lt;/div&gt;" id="DPiyH72D8_Km8HQRfrTz-14">
          <mxCell style="endArrow=blockThin;html=1;fontSize=10;fontColor=#404040;strokeWidth=1;endFill=1;strokeColor=#828282;elbow=vertical;metaEdit=1;endSize=14;startSize=14;jumpStyle=arc;jumpSize=16;rounded=0;edgeStyle=orthogonalEdgeStyle;dashed=1;" parent="1" source="DPiyH72D8_Km8HQRfrTz-4" target="DPiyH72D8_Km8HQRfrTz-5" edge="1">
            <mxGeometry width="240" relative="1" as="geometry">
              <mxPoint x="150" y="230" as="sourcePoint" />
              <mxPoint x="390" y="230" as="targetPoint" />
              <Array as="points">
                <mxPoint x="245" y="280" />
              </Array>
            </mxGeometry>
          </mxCell>
        </object>
        <mxCell id="DPiyH72D8_Km8HQRfrTz-15" value="&lt;span style=&quot;text-align: left&quot;&gt;Essential&lt;/span&gt;" style="rounded=0;whiteSpace=wrap;html=1;fontSize=14;fontColor=#FFFFFF;strokeColor=#0D5091;fillColor=#1061B0;" parent="1" vertex="1">
          <mxGeometry x="520" y="720" width="120" height="30" as="geometry" />
        </mxCell>
        <mxCell id="DPiyH72D8_Km8HQRfrTz-16" value="&lt;span style=&quot;text-align: left&quot;&gt;Optional&lt;/span&gt;" style="rounded=0;whiteSpace=wrap;html=1;fontSize=14;fontColor=#FFFFFF;strokeColor=#0E7DAD;fillColor=#23A2D9;" parent="1" vertex="1">
          <mxGeometry x="640" y="720" width="120" height="30" as="geometry" />
        </mxCell>
        <mxCell id="DPiyH72D8_Km8HQRfrTz-18" value="&lt;font color=&quot;#000000&quot;&gt;&lt;b&gt;Legend&lt;/b&gt;&lt;/font&gt;" style="text;html=1;strokeColor=none;fillColor=none;align=center;verticalAlign=middle;whiteSpace=wrap;rounded=0;dashed=1;fontSize=14;fontColor=#FFFFFF;" parent="1" vertex="1">
          <mxGeometry x="450" y="720" width="70" height="30" as="geometry" />
        </mxCell>
      </root>
    </mxGraphModel>
  </diagram>
  <diagram id="wpKiaUMywl3EBWHkQ5pz" name="admin-standard">
    <mxGraphModel dx="1106" dy="876" grid="1" gridSize="10" guides="1" tooltips="1" connect="1" arrows="1" fold="1" page="1" pageScale="1" pageWidth="827" pageHeight="1169" math="0" shadow="0">
      <root>
        <mxCell id="0" />
        <mxCell id="1" parent="0" />
        <object placeholders="1" c4Name="Jmix Application" c4Type="ContainerScopeBoundary" c4Application="Container" label="&lt;font style=&quot;font-size: 16px&quot;&gt;&lt;b&gt;&lt;div style=&quot;text-align: left&quot;&gt;%c4Name%&lt;/div&gt;&lt;/b&gt;&lt;/font&gt;&lt;div style=&quot;text-align: left&quot;&gt;[%c4Application%]&lt;/div&gt;" id="tIixgdsXyvt3hkJlmzJj-1">
          <mxCell style="rounded=1;fontSize=11;whiteSpace=wrap;html=1;dashed=1;arcSize=20;fillColor=none;strokeColor=#666666;fontColor=#333333;labelBackgroundColor=none;align=left;verticalAlign=bottom;labelBorderColor=none;spacingTop=0;spacing=10;dashPattern=8 4;metaEdit=1;rotatable=0;perimeter=rectanglePerimeter;noLabel=0;labelPadding=0;allowArrows=0;connectable=0;expand=0;recursiveResize=0;editable=1;pointerEvents=0;absoluteArcSize=1;points=[[0.25,0,0],[0.5,0,0],[0.75,0,0],[1,0.25,0],[1,0.5,0],[1,0.75,0],[0.75,1,0],[0.5,1,0],[0.25,1,0],[0,0.75,0],[0,0.5,0],[0,0.25,0]];" vertex="1" parent="1">
            <mxGeometry x="80" y="350" width="680" height="240" as="geometry" />
          </mxCell>
        </object>
        <object c4Name="Role Management" c4Type="Component" c4Description="Roles and Policies" label="&lt;font style=&quot;font-size: 16px&quot;&gt;&lt;b&gt;%c4Name%&lt;/b&gt;&lt;/font&gt;&lt;div&gt;[%c4Type%: %c4Technology%]&lt;/div&gt;&lt;br&gt;&lt;div&gt;&lt;font style=&quot;font-size: 11px&quot;&gt;%c4Description%&lt;/font&gt;&lt;/div&gt;" placeholders="1" c4Technology="Jmix" id="Ji62BAqBBvImox1A0DRl-1">
          <mxCell style="rounded=1;whiteSpace=wrap;html=1;labelBackgroundColor=none;fillColor=#63BEF2;fontColor=#ffffff;align=center;arcSize=6;strokeColor=#2086C9;metaEdit=1;resizable=0;points=[[0.25,0,0],[0.5,0,0],[0.75,0,0],[1,0.25,0],[1,0.5,0],[1,0.75,0],[0.75,1,0],[0.5,1,0],[0.25,1,0],[0,0.75,0],[0,0.5,0],[0,0.25,0]];fontSize=12;" vertex="1" parent="1">
            <mxGeometry x="148.75" y="390" width="240" height="120" as="geometry" />
          </mxCell>
        </object>
        <object c4Name="Administrator" c4Type="Person" c4Description="" label="&lt;font style=&quot;font-size: 16px&quot;&gt;&lt;b&gt;%c4Name%&lt;/b&gt;&lt;/font&gt;&lt;div&gt;[%c4Type%]&lt;/div&gt;&lt;br&gt;&lt;div&gt;&lt;font style=&quot;font-size: 11px&quot;&gt;&lt;font color=&quot;#cccccc&quot;&gt;%c4Description%&lt;/font&gt;&lt;/div&gt;" placeholders="1" id="qsVIjJuOcP19bo1nRkHl-1">
          <mxCell style="html=1;fontSize=11;dashed=0;whitespace=wrap;fillColor=#083F75;strokeColor=#06315C;fontColor=#ffffff;shape=mxgraph.c4.person2;align=center;metaEdit=1;points=[[0.5,0,0],[1,0.5,0],[1,0.75,0],[0.75,1,0],[0.5,1,0],[0.25,1,0],[0,0.75,0],[0,0.5,0]];resizable=1;" vertex="1" parent="1">
            <mxGeometry x="520" y="130" width="157.5" height="130" as="geometry" />
          </mxCell>
        </object>
        <object c4Name="User Management" c4Type="Component" c4Description="User entity" label="&lt;font style=&quot;font-size: 16px&quot;&gt;&lt;b&gt;%c4Name%&lt;/b&gt;&lt;/font&gt;&lt;div&gt;[%c4Type%: %c4Technology%]&lt;/div&gt;&lt;br&gt;&lt;div&gt;&lt;font style=&quot;font-size: 11px&quot;&gt;%c4Description%&lt;/font&gt;&lt;/div&gt;" placeholders="1" c4Technology="Jmix, application" id="qsVIjJuOcP19bo1nRkHl-5">
          <mxCell style="rounded=1;whiteSpace=wrap;html=1;labelBackgroundColor=none;fillColor=#63BEF2;fontColor=#ffffff;align=center;arcSize=6;strokeColor=#2086C9;metaEdit=1;resizable=0;points=[[0.25,0,0],[0.5,0,0],[0.75,0,0],[1,0.25,0],[1,0.5,0],[1,0.75,0],[0.75,1,0],[0.5,1,0],[0.25,1,0],[0,0.75,0],[0,0.5,0],[0,0.25,0]];fontSize=12;" vertex="1" parent="1">
            <mxGeometry x="480" y="390" width="240" height="120" as="geometry" />
          </mxCell>
        </object>
        <object placeholders="1" c4Type="Main Data Store" c4Container="Container " c4Technology="RDBMS" c4Description="Stores configuration of roles &#xa;and list of users" label="&lt;font style=&quot;font-size: 16px&quot;&gt;&lt;b&gt;%c4Type%&lt;/font&gt;&lt;div&gt;[%c4Container%:&amp;nbsp;%c4Technology%]&lt;/div&gt;&lt;br&gt;&lt;div&gt;&lt;font style=&quot;font-size: 11px&quot;&gt;&lt;font color=&quot;#E6E6E6&quot;&gt;%c4Description%&lt;/font&gt;&lt;/div&gt;" id="_5JTZFt9QqF7Wim8_yew-2">
          <mxCell style="shape=cylinder3;size=15;whiteSpace=wrap;html=1;boundedLbl=1;rounded=0;labelBackgroundColor=none;fillColor=#23A2D9;fontSize=12;fontColor=#ffffff;align=center;strokeColor=#0E7DAD;metaEdit=1;points=[[0.5,0,0],[1,0.25,0],[1,0.5,0],[1,0.75,0],[0.5,1,0],[0,0.75,0],[0,0.5,0],[0,0.25,0]];resizable=0;dashed=1;" vertex="1" parent="1">
            <mxGeometry x="300" y="620" width="240" height="120" as="geometry" />
          </mxCell>
        </object>
        <object placeholders="1" c4Type="Relationship" c4Description="Configures runtime roles and policies" label="&lt;div style=&quot;text-align: left&quot;&gt;&lt;div style=&quot;text-align: center&quot;&gt;&lt;b&gt;%c4Description%&lt;/b&gt;&lt;/div&gt;" id="Ah_KgcP0MCd4PV7zl61z-2">
          <mxCell style="endArrow=blockThin;html=1;fontSize=10;fontColor=#404040;strokeWidth=1;endFill=1;strokeColor=#828282;elbow=vertical;metaEdit=1;endSize=14;startSize=14;jumpStyle=arc;jumpSize=16;rounded=0;edgeStyle=orthogonalEdgeStyle;dashed=1;" edge="1" parent="1" source="qsVIjJuOcP19bo1nRkHl-1" target="Ji62BAqBBvImox1A0DRl-1">
            <mxGeometry x="-0.0304" y="-10" width="240" relative="1" as="geometry">
              <mxPoint x="290" y="480" as="sourcePoint" />
              <mxPoint x="530" y="480" as="targetPoint" />
              <Array as="points">
                <mxPoint x="599" y="290" />
                <mxPoint x="360" y="290" />
              </Array>
              <mxPoint as="offset" />
            </mxGeometry>
          </mxCell>
        </object>
        <object placeholders="1" c4Type="Relationship" c4Description="Creates users and assign roles" label="&lt;div style=&quot;text-align: left&quot;&gt;&lt;div style=&quot;text-align: center&quot;&gt;&lt;b&gt;%c4Description%&lt;/b&gt;&lt;/div&gt;" id="Ah_KgcP0MCd4PV7zl61z-3">
          <mxCell style="endArrow=blockThin;html=1;fontSize=10;fontColor=#404040;strokeWidth=1;endFill=1;strokeColor=#828282;elbow=vertical;metaEdit=1;endSize=14;startSize=14;jumpStyle=arc;jumpSize=16;rounded=0;edgeStyle=orthogonalEdgeStyle;dashed=1;" edge="1" parent="1" source="qsVIjJuOcP19bo1nRkHl-1" target="qsVIjJuOcP19bo1nRkHl-5">
            <mxGeometry x="-0.0769" y="1" width="240" relative="1" as="geometry">
              <mxPoint x="290" y="480" as="sourcePoint" />
              <mxPoint x="530" y="480" as="targetPoint" />
              <Array as="points">
                <mxPoint x="600" y="238" />
              </Array>
              <mxPoint as="offset" />
            </mxGeometry>
          </mxCell>
        </object>
        <object placeholders="1" c4Type="Relationship" c4Description="Stores runtime configuration" label="&lt;div style=&quot;text-align: left&quot;&gt;&lt;div style=&quot;text-align: center&quot;&gt;&lt;b&gt;%c4Description%&lt;/b&gt;&lt;/div&gt;" id="Ah_KgcP0MCd4PV7zl61z-4">
          <mxCell style="endArrow=blockThin;html=1;fontSize=10;fontColor=#404040;strokeWidth=1;endFill=1;strokeColor=#828282;elbow=vertical;metaEdit=1;endSize=14;startSize=14;jumpStyle=arc;jumpSize=16;rounded=0;edgeStyle=orthogonalEdgeStyle;dashed=1;" edge="1" parent="1" source="Ji62BAqBBvImox1A0DRl-1" target="_5JTZFt9QqF7Wim8_yew-2">
            <mxGeometry x="-0.7159" y="21" width="240" relative="1" as="geometry">
              <mxPoint x="290" y="480" as="sourcePoint" />
              <mxPoint x="530" y="480" as="targetPoint" />
              <Array as="points">
                <mxPoint x="269" y="565" />
                <mxPoint x="370" y="565" />
              </Array>
              <mxPoint as="offset" />
            </mxGeometry>
          </mxCell>
        </object>
        <object c4Name="Developer" c4Type="Person" c4Description="" label="&lt;font style=&quot;font-size: 16px&quot;&gt;&lt;b&gt;%c4Name%&lt;/b&gt;&lt;/font&gt;&lt;div&gt;[%c4Type%]&lt;/div&gt;&lt;br&gt;&lt;div&gt;&lt;font style=&quot;font-size: 11px&quot;&gt;&lt;font color=&quot;#cccccc&quot;&gt;%c4Description%&lt;/font&gt;&lt;/div&gt;" placeholders="1" id="Ah_KgcP0MCd4PV7zl61z-5">
          <mxCell style="html=1;fontSize=11;dashed=0;whitespace=wrap;fillColor=#083F75;strokeColor=#06315C;fontColor=#ffffff;shape=mxgraph.c4.person2;align=center;metaEdit=1;points=[[0.5,0,0],[1,0.5,0],[1,0.75,0],[0.75,1,0],[0.5,1,0],[0.25,1,0],[0,0.75,0],[0,0.5,0]];resizable=1;" vertex="1" parent="1">
            <mxGeometry x="190" y="130" width="157.5" height="130" as="geometry" />
          </mxCell>
        </object>
        <object placeholders="1" c4Type="Relationship" c4Description="Configures design time roles and policies" label="&lt;div style=&quot;text-align: left&quot;&gt;&lt;div style=&quot;text-align: center&quot;&gt;&lt;b&gt;%c4Description%&lt;/b&gt;&lt;/div&gt;" id="Ah_KgcP0MCd4PV7zl61z-6">
          <mxCell style="endArrow=blockThin;html=1;fontSize=10;fontColor=#404040;strokeWidth=1;endFill=1;strokeColor=#828282;elbow=vertical;metaEdit=1;endSize=14;startSize=14;jumpStyle=arc;jumpSize=16;rounded=0;edgeStyle=orthogonalEdgeStyle;dashed=1;" edge="1" parent="1" source="Ah_KgcP0MCd4PV7zl61z-5" target="Ji62BAqBBvImox1A0DRl-1">
            <mxGeometry x="0.0769" y="-29" width="240" relative="1" as="geometry">
              <mxPoint x="290" y="230" as="sourcePoint" />
              <mxPoint x="530" y="230" as="targetPoint" />
              <Array as="points">
                <mxPoint x="210" y="250" />
              </Array>
              <mxPoint as="offset" />
            </mxGeometry>
          </mxCell>
        </object>
        <object placeholders="1" c4Type="Relationship" c4Description="Stores users and role assignments" label="&lt;div style=&quot;text-align: left&quot;&gt;&lt;div style=&quot;text-align: center&quot;&gt;&lt;b&gt;%c4Description%&lt;/b&gt;&lt;/div&gt;" id="Ah_KgcP0MCd4PV7zl61z-7">
          <mxCell style="endArrow=blockThin;html=1;fontSize=10;fontColor=#404040;strokeWidth=1;endFill=1;strokeColor=#828282;elbow=vertical;metaEdit=1;endSize=14;startSize=14;jumpStyle=arc;jumpSize=16;rounded=0;edgeStyle=orthogonalEdgeStyle;dashed=1;" edge="1" parent="1" source="qsVIjJuOcP19bo1nRkHl-5" target="_5JTZFt9QqF7Wim8_yew-2">
            <mxGeometry x="-0.75" y="-10" width="240" relative="1" as="geometry">
              <mxPoint x="510" y="560" as="sourcePoint" />
              <mxPoint x="750" y="560" as="targetPoint" />
              <Array as="points">
                <mxPoint x="600" y="565" />
                <mxPoint x="470" y="565" />
              </Array>
              <mxPoint as="offset" />
            </mxGeometry>
          </mxCell>
        </object>
      </root>
    </mxGraphModel>
  </diagram>
  <diagram name="admin-external-iam" id="6ZJirRuEfVa2d8E7i2XN">
    <mxGraphModel dx="1106" dy="876" grid="1" gridSize="10" guides="1" tooltips="1" connect="1" arrows="1" fold="1" page="1" pageScale="1" pageWidth="827" pageHeight="1169" math="0" shadow="0">
      <root>
        <mxCell id="cGEh4m_3I-2tJVfAvpQX-0" />
        <mxCell id="cGEh4m_3I-2tJVfAvpQX-1" parent="cGEh4m_3I-2tJVfAvpQX-0" />
        <object placeholders="1" c4Name="Jmix Application" c4Type="ContainerScopeBoundary" c4Application="Container" label="&lt;font style=&quot;font-size: 16px&quot;&gt;&lt;b&gt;&lt;div style=&quot;text-align: left&quot;&gt;%c4Name%&lt;/div&gt;&lt;/b&gt;&lt;/font&gt;&lt;div style=&quot;text-align: left&quot;&gt;[%c4Application%]&lt;/div&gt;" id="cGEh4m_3I-2tJVfAvpQX-2">
          <mxCell style="rounded=1;fontSize=11;whiteSpace=wrap;html=1;dashed=1;arcSize=20;fillColor=none;strokeColor=#666666;fontColor=#333333;labelBackgroundColor=none;align=left;verticalAlign=bottom;labelBorderColor=none;spacingTop=0;spacing=10;dashPattern=8 4;metaEdit=1;rotatable=0;perimeter=rectanglePerimeter;noLabel=0;labelPadding=0;allowArrows=0;connectable=0;expand=0;recursiveResize=0;editable=1;pointerEvents=0;absoluteArcSize=1;points=[[0.25,0,0],[0.5,0,0],[0.75,0,0],[1,0.25,0],[1,0.5,0],[1,0.75,0],[0.75,1,0],[0.5,1,0],[0.25,1,0],[0,0.75,0],[0,0.5,0],[0,0.25,0]];" vertex="1" parent="cGEh4m_3I-2tJVfAvpQX-1">
            <mxGeometry x="80" y="350" width="370" height="240" as="geometry" />
          </mxCell>
        </object>
        <object c4Name="Role Management" c4Type="Component" c4Description="Roles and Policies" label="&lt;font style=&quot;font-size: 16px&quot;&gt;&lt;b&gt;%c4Name%&lt;/b&gt;&lt;/font&gt;&lt;div&gt;[%c4Type%: %c4Technology%]&lt;/div&gt;&lt;br&gt;&lt;div&gt;&lt;font style=&quot;font-size: 11px&quot;&gt;%c4Description%&lt;/font&gt;&lt;/div&gt;" placeholders="1" c4Technology="Jmix" id="cGEh4m_3I-2tJVfAvpQX-3">
          <mxCell style="rounded=1;whiteSpace=wrap;html=1;labelBackgroundColor=none;fillColor=#63BEF2;fontColor=#ffffff;align=center;arcSize=6;strokeColor=#2086C9;metaEdit=1;resizable=0;points=[[0.25,0,0],[0.5,0,0],[0.75,0,0],[1,0.25,0],[1,0.5,0],[1,0.75,0],[0.75,1,0],[0.5,1,0],[0.25,1,0],[0,0.75,0],[0,0.5,0],[0,0.25,0]];fontSize=12;" vertex="1" parent="cGEh4m_3I-2tJVfAvpQX-1">
            <mxGeometry x="148.75" y="390" width="240" height="120" as="geometry" />
          </mxCell>
        </object>
        <object c4Name="Administrator" c4Type="Person" c4Description="" label="&lt;font style=&quot;font-size: 16px&quot;&gt;&lt;b&gt;%c4Name%&lt;/b&gt;&lt;/font&gt;&lt;div&gt;[%c4Type%]&lt;/div&gt;&lt;br&gt;&lt;div&gt;&lt;font style=&quot;font-size: 11px&quot;&gt;&lt;font color=&quot;#cccccc&quot;&gt;%c4Description%&lt;/font&gt;&lt;/div&gt;" placeholders="1" id="cGEh4m_3I-2tJVfAvpQX-4">
          <mxCell style="html=1;fontSize=11;dashed=0;whitespace=wrap;fillColor=#083F75;strokeColor=#06315C;fontColor=#ffffff;shape=mxgraph.c4.person2;align=center;metaEdit=1;points=[[0.5,0,0],[1,0.5,0],[1,0.75,0],[0.75,1,0],[0.5,1,0],[0.25,1,0],[0,0.75,0],[0,0.5,0]];resizable=1;" vertex="1" parent="cGEh4m_3I-2tJVfAvpQX-1">
            <mxGeometry x="520" y="130" width="157.5" height="130" as="geometry" />
          </mxCell>
        </object>
        <object placeholders="1" c4Type="Main Data Store" c4Container="Container " c4Technology="RDBMS" c4Description="Stores configuration of roles" label="&lt;font style=&quot;font-size: 16px&quot;&gt;&lt;b&gt;%c4Type%&lt;/font&gt;&lt;div&gt;[%c4Container%:&amp;nbsp;%c4Technology%]&lt;/div&gt;&lt;br&gt;&lt;div&gt;&lt;font style=&quot;font-size: 11px&quot;&gt;&lt;font color=&quot;#E6E6E6&quot;&gt;%c4Description%&lt;/font&gt;&lt;/div&gt;" id="cGEh4m_3I-2tJVfAvpQX-6">
          <mxCell style="shape=cylinder3;size=15;whiteSpace=wrap;html=1;boundedLbl=1;rounded=0;labelBackgroundColor=none;fillColor=#23A2D9;fontSize=12;fontColor=#ffffff;align=center;strokeColor=#0E7DAD;metaEdit=1;points=[[0.5,0,0],[1,0.25,0],[1,0.5,0],[1,0.75,0],[0.5,1,0],[0,0.75,0],[0,0.5,0],[0,0.25,0]];resizable=0;dashed=1;" vertex="1" parent="cGEh4m_3I-2tJVfAvpQX-1">
            <mxGeometry x="148.75" y="620" width="240" height="120" as="geometry" />
          </mxCell>
        </object>
        <object placeholders="1" c4Type="Relationship" c4Description="Configures runtime roles and policies" label="&lt;div style=&quot;text-align: left&quot;&gt;&lt;div style=&quot;text-align: center&quot;&gt;&lt;b&gt;%c4Description%&lt;/b&gt;&lt;/div&gt;" id="cGEh4m_3I-2tJVfAvpQX-7">
          <mxCell style="endArrow=blockThin;html=1;fontSize=10;fontColor=#404040;strokeWidth=1;endFill=1;strokeColor=#828282;elbow=vertical;metaEdit=1;endSize=14;startSize=14;jumpStyle=arc;jumpSize=16;rounded=0;edgeStyle=orthogonalEdgeStyle;dashed=1;" edge="1" parent="cGEh4m_3I-2tJVfAvpQX-1" source="cGEh4m_3I-2tJVfAvpQX-4" target="cGEh4m_3I-2tJVfAvpQX-3">
            <mxGeometry x="-0.0588" y="-10" width="240" relative="1" as="geometry">
              <mxPoint x="290" y="480" as="sourcePoint" />
              <mxPoint x="530" y="480" as="targetPoint" />
              <Array as="points">
                <mxPoint x="570" y="290" />
                <mxPoint x="360" y="290" />
              </Array>
              <mxPoint as="offset" />
            </mxGeometry>
          </mxCell>
        </object>
        <object placeholders="1" c4Type="Relationship" c4Description="Creates users and assign roles" label="&lt;div style=&quot;text-align: left&quot;&gt;&lt;div style=&quot;text-align: center&quot;&gt;&lt;b&gt;%c4Description%&lt;/b&gt;&lt;/div&gt;" id="cGEh4m_3I-2tJVfAvpQX-8">
          <mxCell style="endArrow=blockThin;html=1;fontSize=10;fontColor=#404040;strokeWidth=1;endFill=1;strokeColor=#828282;elbow=vertical;metaEdit=1;endSize=14;startSize=14;jumpStyle=arc;jumpSize=16;rounded=0;edgeStyle=orthogonalEdgeStyle;dashed=1;" edge="1" parent="cGEh4m_3I-2tJVfAvpQX-1" source="cGEh4m_3I-2tJVfAvpQX-4" target="t91LRoTAzEfz2l8g-2dJ-0">
            <mxGeometry x="-0.0769" y="1" width="240" relative="1" as="geometry">
              <mxPoint x="290" y="480" as="sourcePoint" />
              <mxPoint x="598.75" y="390" as="targetPoint" />
              <Array as="points" />
              <mxPoint as="offset" />
            </mxGeometry>
          </mxCell>
        </object>
        <object c4Name="Developer" c4Type="Person" c4Description="" label="&lt;font style=&quot;font-size: 16px&quot;&gt;&lt;b&gt;%c4Name%&lt;/b&gt;&lt;/font&gt;&lt;div&gt;[%c4Type%]&lt;/div&gt;&lt;br&gt;&lt;div&gt;&lt;font style=&quot;font-size: 11px&quot;&gt;&lt;font color=&quot;#cccccc&quot;&gt;%c4Description%&lt;/font&gt;&lt;/div&gt;" placeholders="1" id="cGEh4m_3I-2tJVfAvpQX-10">
          <mxCell style="html=1;fontSize=11;dashed=0;whitespace=wrap;fillColor=#083F75;strokeColor=#06315C;fontColor=#ffffff;shape=mxgraph.c4.person2;align=center;metaEdit=1;points=[[0.5,0,0],[1,0.5,0],[1,0.75,0],[0.75,1,0],[0.5,1,0],[0.25,1,0],[0,0.75,0],[0,0.5,0]];resizable=1;" vertex="1" parent="cGEh4m_3I-2tJVfAvpQX-1">
            <mxGeometry x="190" y="130" width="157.5" height="130" as="geometry" />
          </mxCell>
        </object>
        <object placeholders="1" c4Type="Relationship" c4Description="Configures design time roles and policies" label="&lt;div style=&quot;text-align: left&quot;&gt;&lt;div style=&quot;text-align: center&quot;&gt;&lt;b&gt;%c4Description%&lt;/b&gt;&lt;/div&gt;" id="cGEh4m_3I-2tJVfAvpQX-11">
          <mxCell style="endArrow=blockThin;html=1;fontSize=10;fontColor=#404040;strokeWidth=1;endFill=1;strokeColor=#828282;elbow=vertical;metaEdit=1;endSize=14;startSize=14;jumpStyle=arc;jumpSize=16;rounded=0;edgeStyle=orthogonalEdgeStyle;dashed=1;" edge="1" parent="cGEh4m_3I-2tJVfAvpQX-1" source="cGEh4m_3I-2tJVfAvpQX-10" target="cGEh4m_3I-2tJVfAvpQX-3">
            <mxGeometry x="0.0769" y="-29" width="240" relative="1" as="geometry">
              <mxPoint x="290" y="230" as="sourcePoint" />
              <mxPoint x="530" y="230" as="targetPoint" />
              <Array as="points">
                <mxPoint x="210" y="250" />
              </Array>
              <mxPoint as="offset" />
            </mxGeometry>
          </mxCell>
        </object>
        <object placeholders="1" c4Name="External IAM Server" c4Type="Container" c4Technology="OIDC, LDAP, etc." c4Description="Enables external authentication and SSO. &#xa;Provides a list of user&#39;s roles." label="&lt;font style=&quot;font-size: 16px&quot;&gt;&lt;b&gt;%c4Name%&lt;/b&gt;&lt;/font&gt;&lt;div&gt;[%c4Type%: %c4Technology%]&lt;/div&gt;&lt;br&gt;&lt;div&gt;&lt;font style=&quot;font-size: 11px&quot;&gt;&lt;font color=&quot;#E6E6E6&quot;&gt;%c4Description%&lt;/font&gt;&lt;/div&gt;" id="t91LRoTAzEfz2l8g-2dJ-0">
          <mxCell style="rounded=1;whiteSpace=wrap;html=1;fontSize=11;labelBackgroundColor=none;fillColor=#23A2D9;fontColor=#ffffff;align=center;arcSize=10;strokeColor=#0E7DAD;metaEdit=1;resizable=1;points=[[0.25,0,0],[0.5,0,0],[0.75,0,0],[1,0.25,0],[1,0.5,0],[1,0.75,0],[0.75,1,0],[0.5,1,0],[0.25,1,0],[0,0.75,0],[0,0.5,0],[0,0.25,0]];" vertex="1" parent="cGEh4m_3I-2tJVfAvpQX-1">
            <mxGeometry x="483.75" y="400" width="230" height="90" as="geometry" />
          </mxCell>
        </object>
        <object placeholders="1" c4Type="Relationship" c4Description="Stores runtime configuration" label="&lt;div style=&quot;text-align: left&quot;&gt;&lt;div style=&quot;text-align: center&quot;&gt;&lt;b&gt;%c4Description%&lt;/b&gt;&lt;/div&gt;" id="t91LRoTAzEfz2l8g-2dJ-1">
          <mxCell style="endArrow=blockThin;html=1;fontSize=10;fontColor=#404040;strokeWidth=1;endFill=1;strokeColor=#828282;elbow=vertical;metaEdit=1;endSize=14;startSize=14;jumpStyle=arc;jumpSize=16;rounded=0;edgeStyle=orthogonalEdgeStyle;dashed=1;" edge="1" parent="cGEh4m_3I-2tJVfAvpQX-1" source="cGEh4m_3I-2tJVfAvpQX-3" target="cGEh4m_3I-2tJVfAvpQX-6">
            <mxGeometry x="-0.6364" width="240" relative="1" as="geometry">
              <mxPoint x="260" y="540" as="sourcePoint" />
              <mxPoint x="500" y="540" as="targetPoint" />
              <mxPoint as="offset" />
            </mxGeometry>
          </mxCell>
        </object>
      </root>
    </mxGraphModel>
  </diagram>
  <diagram name="user" id="b2RW9DJsK8Iwxm6dFfB3">
    <mxGraphModel dx="1106" dy="876" grid="1" gridSize="10" guides="1" tooltips="1" connect="1" arrows="1" fold="1" page="1" pageScale="1" pageWidth="827" pageHeight="1169" math="0" shadow="0">
      <root>
        <mxCell id="RDaB4jAixgHhmAhiqhXv-0" />
        <mxCell id="RDaB4jAixgHhmAhiqhXv-1" parent="RDaB4jAixgHhmAhiqhXv-0" />
        <object placeholders="1" c4Name="Jmix Application" c4Type="ContainerScopeBoundary" c4Application="Container" label="&lt;font style=&quot;font-size: 16px&quot;&gt;&lt;b&gt;&lt;div style=&quot;text-align: left&quot;&gt;%c4Name%&lt;/div&gt;&lt;/b&gt;&lt;/font&gt;&lt;div style=&quot;text-align: left&quot;&gt;[%c4Application%]&lt;/div&gt;" id="RDaB4jAixgHhmAhiqhXv-2">
          <mxCell style="rounded=1;fontSize=11;whiteSpace=wrap;html=1;dashed=1;arcSize=20;fillColor=none;strokeColor=#666666;fontColor=#333333;labelBackgroundColor=none;align=left;verticalAlign=bottom;labelBorderColor=none;spacingTop=0;spacing=10;dashPattern=8 4;metaEdit=1;rotatable=0;perimeter=rectanglePerimeter;noLabel=0;labelPadding=0;allowArrows=0;connectable=0;expand=0;recursiveResize=0;editable=1;pointerEvents=0;absoluteArcSize=1;points=[[0.25,0,0],[0.5,0,0],[0.75,0,0],[1,0.25,0],[1,0.5,0],[1,0.75,0],[0.75,1,0],[0.5,1,0],[0.25,1,0],[0,0.75,0],[0,0.5,0],[0,0.25,0]];" vertex="1" parent="RDaB4jAixgHhmAhiqhXv-1">
            <mxGeometry x="80" y="290" width="680" height="400" as="geometry" />
          </mxCell>
        </object>
        <object c4Name="User" c4Type="Person" c4Description="" label="&lt;font style=&quot;font-size: 16px&quot;&gt;&lt;b&gt;%c4Name%&lt;/b&gt;&lt;/font&gt;&lt;div&gt;[%c4Type%]&lt;/div&gt;&lt;br&gt;&lt;div&gt;&lt;font style=&quot;font-size: 11px&quot;&gt;&lt;font color=&quot;#cccccc&quot;&gt;%c4Description%&lt;/font&gt;&lt;/div&gt;" placeholders="1" id="RDaB4jAixgHhmAhiqhXv-5">
          <mxCell style="html=1;fontSize=11;dashed=0;whitespace=wrap;fillColor=#083F75;strokeColor=#06315C;fontColor=#ffffff;shape=mxgraph.c4.person2;align=center;metaEdit=1;points=[[0.5,0,0],[1,0.5,0],[1,0.75,0],[0.75,1,0],[0.5,1,0],[0.25,1,0],[0,0.75,0],[0,0.5,0]];resizable=1;" vertex="1" parent="RDaB4jAixgHhmAhiqhXv-1">
            <mxGeometry x="341.25" y="110" width="157.5" height="130" as="geometry" />
          </mxCell>
        </object>
        <object c4Name="Authentication" c4Type="Component" c4Description="Login screen, authentication filters, CurrentAuthentication bean" label="&lt;font style=&quot;font-size: 16px&quot;&gt;&lt;b&gt;%c4Name%&lt;/b&gt;&lt;/font&gt;&lt;div&gt;[%c4Type%: %c4Technology%]&lt;/div&gt;&lt;br&gt;&lt;div&gt;&lt;font style=&quot;font-size: 11px&quot;&gt;%c4Description%&lt;/font&gt;&lt;/div&gt;" placeholders="1" c4Technology="Spring Security, Jmix" id="RDaB4jAixgHhmAhiqhXv-6">
          <mxCell style="rounded=1;whiteSpace=wrap;html=1;labelBackgroundColor=none;fillColor=#63BEF2;fontColor=#ffffff;align=center;arcSize=6;strokeColor=#2086C9;metaEdit=1;resizable=0;points=[[0.25,0,0],[0.5,0,0],[0.75,0,0],[1,0.25,0],[1,0.5,0],[1,0.75,0],[0.75,1,0],[0.5,1,0],[0.25,1,0],[0,0.75,0],[0,0.5,0],[0,0.25,0]];fontSize=12;" vertex="1" parent="RDaB4jAixgHhmAhiqhXv-1">
            <mxGeometry x="130" y="340" width="240" height="120" as="geometry" />
          </mxCell>
        </object>
        <object c4Name="Data Access and UI" c4Type="Component" c4Description="Java API for accessing data, UI components" label="&lt;font style=&quot;font-size: 16px&quot;&gt;&lt;b&gt;%c4Name%&lt;/b&gt;&lt;/font&gt;&lt;div&gt;[%c4Type%: %c4Technology%]&lt;/div&gt;&lt;br&gt;&lt;div&gt;&lt;font style=&quot;font-size: 11px&quot;&gt;%c4Description%&lt;/font&gt;&lt;/div&gt;" placeholders="1" c4Technology="Jmix" id="NeYElDXnP_UvF3Ho5bb2-0">
          <mxCell style="rounded=1;whiteSpace=wrap;html=1;labelBackgroundColor=none;fillColor=#63BEF2;fontColor=#ffffff;align=center;arcSize=6;strokeColor=#2086C9;metaEdit=1;resizable=0;points=[[0.25,0,0],[0.5,0,0],[0.75,0,0],[1,0.25,0],[1,0.5,0],[1,0.75,0],[0.75,1,0],[0.5,1,0],[0.25,1,0],[0,0.75,0],[0,0.5,0],[0,0.25,0]];fontSize=12;" vertex="1" parent="RDaB4jAixgHhmAhiqhXv-1">
            <mxGeometry x="480" y="340" width="240" height="120" as="geometry" />
          </mxCell>
        </object>
        <object c4Name="Access Control" c4Type="Component" c4Description="Checks if operation, entity, attribute or screen is permitted" label="&lt;font style=&quot;font-size: 16px&quot;&gt;&lt;b&gt;%c4Name%&lt;/b&gt;&lt;/font&gt;&lt;div&gt;[%c4Type%: %c4Technology%]&lt;/div&gt;&lt;br&gt;&lt;div&gt;&lt;font style=&quot;font-size: 11px&quot;&gt;%c4Description%&lt;/font&gt;&lt;/div&gt;" placeholders="1" c4Technology="Jmix" id="NeYElDXnP_UvF3Ho5bb2-1">
          <mxCell style="rounded=1;whiteSpace=wrap;html=1;labelBackgroundColor=none;fillColor=#63BEF2;fontColor=#ffffff;align=center;arcSize=6;strokeColor=#2086C9;metaEdit=1;resizable=0;points=[[0.25,0,0],[0.5,0,0],[0.75,0,0],[1,0.25,0],[1,0.5,0],[1,0.75,0],[0.75,1,0],[0.5,1,0],[0.25,1,0],[0,0.75,0],[0,0.5,0],[0,0.25,0]];fontSize=12;" vertex="1" parent="RDaB4jAixgHhmAhiqhXv-1">
            <mxGeometry x="300" y="540" width="240" height="120" as="geometry" />
          </mxCell>
        </object>
        <object placeholders="1" c4Type="Relationship" c4Description="Logs in to application" label="&lt;div style=&quot;text-align: left&quot;&gt;&lt;div style=&quot;text-align: center&quot;&gt;&lt;b&gt;%c4Description%&lt;/b&gt;&lt;/div&gt;" id="NeYElDXnP_UvF3Ho5bb2-2">
          <mxCell style="endArrow=blockThin;html=1;fontSize=10;fontColor=#404040;strokeWidth=1;endFill=1;strokeColor=#828282;elbow=vertical;metaEdit=1;endSize=14;startSize=14;jumpStyle=arc;jumpSize=16;rounded=0;edgeStyle=orthogonalEdgeStyle;dashed=1;" edge="1" parent="RDaB4jAixgHhmAhiqhXv-1" source="RDaB4jAixgHhmAhiqhXv-5" target="RDaB4jAixgHhmAhiqhXv-6">
            <mxGeometry x="-0.2174" y="-10" width="240" relative="1" as="geometry">
              <mxPoint x="290" y="270" as="sourcePoint" />
              <mxPoint x="530" y="270" as="targetPoint" />
              <Array as="points">
                <mxPoint x="380" y="270" />
                <mxPoint x="250" y="270" />
              </Array>
              <mxPoint as="offset" />
            </mxGeometry>
          </mxCell>
        </object>
        <object placeholders="1" c4Type="Relationship" c4Description="Works with application" label="&lt;div style=&quot;text-align: left&quot;&gt;&lt;div style=&quot;text-align: center&quot;&gt;&lt;b&gt;%c4Description%&lt;/b&gt;&lt;/div&gt;" id="NeYElDXnP_UvF3Ho5bb2-3">
          <mxCell style="endArrow=blockThin;html=1;fontSize=10;fontColor=#404040;strokeWidth=1;endFill=1;strokeColor=#828282;elbow=vertical;metaEdit=1;endSize=14;startSize=14;jumpStyle=arc;jumpSize=16;rounded=0;edgeStyle=orthogonalEdgeStyle;dashed=1;" edge="1" parent="RDaB4jAixgHhmAhiqhXv-1" source="RDaB4jAixgHhmAhiqhXv-5" target="NeYElDXnP_UvF3Ho5bb2-0">
            <mxGeometry x="-0.25" y="10" width="240" relative="1" as="geometry">
              <mxPoint x="460" y="270" as="sourcePoint" />
              <mxPoint x="700" y="270" as="targetPoint" />
              <Array as="points">
                <mxPoint x="460" y="270" />
                <mxPoint x="600" y="270" />
              </Array>
              <mxPoint as="offset" />
            </mxGeometry>
          </mxCell>
        </object>
        <object placeholders="1" c4Type="Relationship" c4Description="Requests if action is permitted" label="&lt;div style=&quot;text-align: left&quot;&gt;&lt;div style=&quot;text-align: center&quot;&gt;&lt;b&gt;%c4Description%&lt;/b&gt;&lt;/div&gt;" id="NeYElDXnP_UvF3Ho5bb2-4">
          <mxCell style="endArrow=blockThin;html=1;fontSize=10;fontColor=#404040;strokeWidth=1;endFill=1;strokeColor=#828282;elbow=vertical;metaEdit=1;endSize=14;startSize=14;jumpStyle=arc;jumpSize=16;rounded=0;edgeStyle=orthogonalEdgeStyle;dashed=1;entryX=0.75;entryY=0;entryDx=0;entryDy=0;entryPerimeter=0;" edge="1" parent="RDaB4jAixgHhmAhiqhXv-1" source="NeYElDXnP_UvF3Ho5bb2-0" target="NeYElDXnP_UvF3Ho5bb2-1">
            <mxGeometry x="-0.8" width="240" relative="1" as="geometry">
              <mxPoint x="550" y="490" as="sourcePoint" />
              <mxPoint x="790" y="490" as="targetPoint" />
              <mxPoint as="offset" />
            </mxGeometry>
          </mxCell>
        </object>
        <object placeholders="1" c4Type="Relationship" c4Description="Gets information about permissions of the current user" label="&lt;div style=&quot;text-align: left&quot;&gt;&lt;div style=&quot;text-align: center&quot;&gt;&lt;b&gt;%c4Description%&lt;/b&gt;&lt;/div&gt;" id="NeYElDXnP_UvF3Ho5bb2-5">
          <mxCell style="endArrow=blockThin;html=1;fontSize=10;fontColor=#404040;strokeWidth=1;endFill=1;strokeColor=#828282;elbow=vertical;metaEdit=1;endSize=14;startSize=14;jumpStyle=arc;jumpSize=16;rounded=0;edgeStyle=orthogonalEdgeStyle;dashed=1;exitX=0.25;exitY=0;exitDx=0;exitDy=0;exitPerimeter=0;" edge="1" parent="RDaB4jAixgHhmAhiqhXv-1" source="NeYElDXnP_UvF3Ho5bb2-1" target="RDaB4jAixgHhmAhiqhXv-6">
            <mxGeometry x="0.0526" y="20" width="240" relative="1" as="geometry">
              <mxPoint x="150" y="510" as="sourcePoint" />
              <mxPoint x="390" y="510" as="targetPoint" />
              <mxPoint as="offset" />
            </mxGeometry>
          </mxCell>
        </object>
      </root>
    </mxGraphModel>
  </diagram>
  <diagram id="zF0LGq6wmJgh9kcqy5Mj" name="user-roles-policies">
    <mxGraphModel dx="983" dy="890" grid="1" gridSize="10" guides="1" tooltips="1" connect="1" arrows="1" fold="1" page="1" pageScale="1" pageWidth="827" pageHeight="1169" math="0" shadow="0">
      <root>
        <mxCell id="0" />
        <mxCell id="1" parent="0" />
        <mxCell id="Cw2vZzmatBAaSTgnXfGu-1" value="Resource Role" style="rounded=1;whiteSpace=wrap;html=1;fontSize=15;fillColor=#cdeb8b;strokeColor=#36393d;" parent="1" vertex="1">
          <mxGeometry x="250" y="230" width="120" height="60" as="geometry" />
        </mxCell>
        <mxCell id="ned7DRIrQuuD62e_DKzl-1" value="User" style="rounded=1;whiteSpace=wrap;html=1;fontSize=15;fillColor=#ffcc99;strokeColor=#36393d;" parent="1" vertex="1">
          <mxGeometry x="320" y="110" width="120" height="60" as="geometry" />
        </mxCell>
        <mxCell id="ned7DRIrQuuD62e_DKzl-2" value="Row-level Role" style="rounded=1;whiteSpace=wrap;html=1;fontSize=15;fillColor=#cdeb8b;strokeColor=#36393d;" parent="1" vertex="1">
          <mxGeometry x="390" y="230" width="120" height="60" as="geometry" />
        </mxCell>
        <object placeholders="1" c4Type="Relationship" c4Description="&#xa;" label="&lt;div style=&quot;text-align: left&quot;&gt;&lt;div style=&quot;text-align: center&quot;&gt;&lt;b&gt;%c4Description%&lt;/b&gt;&lt;/div&gt;" id="ned7DRIrQuuD62e_DKzl-5">
          <mxCell style="endArrow=ERmany;html=1;fontSize=10;fontColor=#404040;strokeWidth=1;endFill=0;strokeColor=#828282;elbow=vertical;metaEdit=1;endSize=14;startSize=14;jumpStyle=arc;jumpSize=16;rounded=0;edgeStyle=orthogonalEdgeStyle;" parent="1" source="ned7DRIrQuuD62e_DKzl-1" target="Cw2vZzmatBAaSTgnXfGu-1" edge="1">
            <mxGeometry width="240" relative="1" as="geometry">
              <mxPoint x="230" y="180" as="sourcePoint" />
              <mxPoint x="470" y="180" as="targetPoint" />
              <Array as="points">
                <mxPoint x="360" y="200" />
                <mxPoint x="310" y="200" />
              </Array>
            </mxGeometry>
          </mxCell>
        </object>
        <object placeholders="1" c4Type="Relationship" c4Description="&#xa;" label="&lt;div style=&quot;text-align: left&quot;&gt;&lt;div style=&quot;text-align: center&quot;&gt;&lt;b&gt;%c4Description%&lt;/b&gt;&lt;/div&gt;" id="ned7DRIrQuuD62e_DKzl-6">
          <mxCell style="endArrow=ERmany;html=1;fontSize=10;fontColor=#404040;strokeWidth=1;endFill=0;strokeColor=#828282;elbow=vertical;metaEdit=1;endSize=14;startSize=14;jumpStyle=arc;jumpSize=16;rounded=0;edgeStyle=orthogonalEdgeStyle;" parent="1" source="ned7DRIrQuuD62e_DKzl-1" target="ned7DRIrQuuD62e_DKzl-2" edge="1">
            <mxGeometry width="240" relative="1" as="geometry">
              <mxPoint x="390" y="180" as="sourcePoint" />
              <mxPoint x="290" y="240" as="targetPoint" />
              <Array as="points">
                <mxPoint x="400" y="200" />
                <mxPoint x="450" y="200" />
              </Array>
            </mxGeometry>
          </mxCell>
        </object>
        <mxCell id="ned7DRIrQuuD62e_DKzl-7" value="Entity Policy" style="rounded=1;whiteSpace=wrap;html=1;fontSize=15;fillColor=#f9f7ed;strokeColor=#36393d;" parent="1" vertex="1">
          <mxGeometry x="160" y="320" width="120" height="60" as="geometry" />
        </mxCell>
        <object placeholders="1" c4Type="Relationship" c4Description="&#xa;" label="&lt;div style=&quot;text-align: left&quot;&gt;&lt;div style=&quot;text-align: center&quot;&gt;&lt;b&gt;%c4Description%&lt;/b&gt;&lt;/div&gt;" id="ned7DRIrQuuD62e_DKzl-8">
          <mxCell style="endArrow=ERmany;html=1;fontSize=10;fontColor=#404040;strokeWidth=1;endFill=0;strokeColor=#828282;elbow=vertical;metaEdit=1;endSize=14;startSize=14;jumpStyle=none;jumpSize=16;rounded=0;edgeStyle=orthogonalEdgeStyle;" parent="1" source="Cw2vZzmatBAaSTgnXfGu-1" target="ned7DRIrQuuD62e_DKzl-7" edge="1">
            <mxGeometry width="240" relative="1" as="geometry">
              <mxPoint x="440" y="390" as="sourcePoint" />
              <mxPoint x="360" y="450" as="targetPoint" />
              <Array as="points">
                <mxPoint x="310" y="350" />
              </Array>
            </mxGeometry>
          </mxCell>
        </object>
        <mxCell id="ned7DRIrQuuD62e_DKzl-9" value="Entity Attribute Policy" style="rounded=1;whiteSpace=wrap;html=1;fontSize=15;fillColor=#f9f7ed;strokeColor=#36393d;" parent="1" vertex="1">
          <mxGeometry x="160" y="400" width="120" height="60" as="geometry" />
        </mxCell>
        <mxCell id="ned7DRIrQuuD62e_DKzl-10" value="Screen Policy" style="rounded=1;whiteSpace=wrap;html=1;fontSize=15;fillColor=#f9f7ed;strokeColor=#36393d;" parent="1" vertex="1">
          <mxGeometry x="160" y="480" width="120" height="60" as="geometry" />
        </mxCell>
        <mxCell id="ned7DRIrQuuD62e_DKzl-11" value="Menu Policy" style="rounded=1;whiteSpace=wrap;html=1;fontSize=15;fillColor=#f9f7ed;strokeColor=#36393d;" parent="1" vertex="1">
          <mxGeometry x="340" y="480" width="120" height="60" as="geometry" />
        </mxCell>
        <mxCell id="ned7DRIrQuuD62e_DKzl-12" value="Specific Policy" style="rounded=1;whiteSpace=wrap;html=1;fontSize=15;fillColor=#f9f7ed;strokeColor=#36393d;" parent="1" vertex="1">
          <mxGeometry x="160" y="560" width="120" height="60" as="geometry" />
        </mxCell>
        <object placeholders="1" c4Type="Relationship" c4Description="&#xa;" label="&lt;div style=&quot;text-align: left&quot;&gt;&lt;div style=&quot;text-align: center&quot;&gt;&lt;b&gt;%c4Description%&lt;/b&gt;&lt;/div&gt;" id="ned7DRIrQuuD62e_DKzl-13">
          <mxCell style="endArrow=ERmany;html=1;fontSize=10;fontColor=#404040;strokeWidth=1;endFill=0;strokeColor=#828282;elbow=vertical;metaEdit=1;endSize=14;startSize=14;jumpStyle=none;jumpSize=16;rounded=0;edgeStyle=orthogonalEdgeStyle;exitX=0.5;exitY=1;exitDx=0;exitDy=0;" parent="1" source="Cw2vZzmatBAaSTgnXfGu-1" target="ned7DRIrQuuD62e_DKzl-9" edge="1">
            <mxGeometry width="240" relative="1" as="geometry">
              <mxPoint x="320" y="300" as="sourcePoint" />
              <mxPoint x="290" y="380" as="targetPoint" />
              <Array as="points">
                <mxPoint x="310" y="430" />
              </Array>
            </mxGeometry>
          </mxCell>
        </object>
        <object placeholders="1" c4Type="Relationship" c4Description="&#xa;" label="&lt;div style=&quot;text-align: left&quot;&gt;&lt;div style=&quot;text-align: center&quot;&gt;&lt;b&gt;%c4Description%&lt;/b&gt;&lt;/div&gt;" id="ned7DRIrQuuD62e_DKzl-14">
          <mxCell style="endArrow=ERmany;html=1;fontSize=10;fontColor=#404040;strokeWidth=1;endFill=0;strokeColor=#828282;elbow=vertical;metaEdit=1;endSize=14;startSize=14;jumpStyle=none;jumpSize=16;rounded=0;edgeStyle=orthogonalEdgeStyle;" parent="1" target="ned7DRIrQuuD62e_DKzl-10" edge="1">
            <mxGeometry width="240" relative="1" as="geometry">
              <mxPoint x="310" y="290" as="sourcePoint" />
              <mxPoint x="280" y="510" as="targetPoint" />
              <Array as="points">
                <mxPoint x="310" y="510" />
              </Array>
            </mxGeometry>
          </mxCell>
        </object>
        <object placeholders="1" c4Type="Relationship" c4Description="&#xa;" label="&lt;div style=&quot;text-align: left&quot;&gt;&lt;div style=&quot;text-align: center&quot;&gt;&lt;b&gt;%c4Description%&lt;/b&gt;&lt;/div&gt;" id="ned7DRIrQuuD62e_DKzl-15">
          <mxCell style="endArrow=ERmany;html=1;fontSize=10;fontColor=#404040;strokeWidth=1;endFill=0;strokeColor=#828282;elbow=vertical;metaEdit=1;endSize=14;startSize=14;jumpStyle=none;jumpSize=16;rounded=0;edgeStyle=orthogonalEdgeStyle;" parent="1" source="Cw2vZzmatBAaSTgnXfGu-1" target="ned7DRIrQuuD62e_DKzl-11" edge="1">
            <mxGeometry width="240" relative="1" as="geometry">
              <mxPoint x="310" y="370" as="sourcePoint" />
              <mxPoint x="280" y="590" as="targetPoint" />
              <Array as="points">
                <mxPoint x="310" y="510" />
              </Array>
            </mxGeometry>
          </mxCell>
        </object>
        <object placeholders="1" c4Type="Relationship" c4Description="&#xa;" label="&lt;div style=&quot;text-align: left&quot;&gt;&lt;div style=&quot;text-align: center&quot;&gt;&lt;b&gt;%c4Description%&lt;/b&gt;&lt;/div&gt;" id="ned7DRIrQuuD62e_DKzl-16">
          <mxCell style="endArrow=ERmany;html=1;fontSize=10;fontColor=#404040;strokeWidth=1;endFill=0;strokeColor=#828282;elbow=vertical;metaEdit=1;endSize=14;startSize=14;jumpStyle=none;jumpSize=16;rounded=0;edgeStyle=orthogonalEdgeStyle;" parent="1" source="Cw2vZzmatBAaSTgnXfGu-1" target="ned7DRIrQuuD62e_DKzl-12" edge="1">
            <mxGeometry width="240" relative="1" as="geometry">
              <mxPoint x="310" y="370" as="sourcePoint" />
              <mxPoint x="280" y="670" as="targetPoint" />
              <Array as="points">
                <mxPoint x="310" y="590" />
              </Array>
            </mxGeometry>
          </mxCell>
        </object>
        <mxCell id="ned7DRIrQuuD62e_DKzl-17" value="JPQL Policy" style="rounded=1;whiteSpace=wrap;html=1;fontSize=15;fillColor=#f9f7ed;strokeColor=#36393d;" parent="1" vertex="1">
          <mxGeometry x="480" y="320" width="120" height="60" as="geometry" />
        </mxCell>
        <object placeholders="1" c4Type="Relationship" c4Description="&#xa;" label="&lt;div style=&quot;text-align: left&quot;&gt;&lt;div style=&quot;text-align: center&quot;&gt;&lt;b&gt;%c4Description%&lt;/b&gt;&lt;/div&gt;" id="ned7DRIrQuuD62e_DKzl-18">
          <mxCell style="endArrow=ERmany;html=1;fontSize=10;fontColor=#404040;strokeWidth=1;endFill=0;strokeColor=#828282;elbow=vertical;metaEdit=1;endSize=14;startSize=14;jumpStyle=none;jumpSize=16;rounded=0;edgeStyle=orthogonalEdgeStyle;" parent="1" source="ned7DRIrQuuD62e_DKzl-2" target="ned7DRIrQuuD62e_DKzl-17" edge="1">
            <mxGeometry width="240" relative="1" as="geometry">
              <mxPoint x="450" y="290" as="sourcePoint" />
              <mxPoint x="420" y="350" as="targetPoint" />
              <Array as="points">
                <mxPoint x="450" y="350" />
              </Array>
            </mxGeometry>
          </mxCell>
        </object>
        <mxCell id="ned7DRIrQuuD62e_DKzl-19" value="Predicate Policy" style="rounded=1;whiteSpace=wrap;html=1;fontSize=15;fillColor=#f9f7ed;strokeColor=#36393d;" parent="1" vertex="1">
          <mxGeometry x="480" y="400" width="120" height="60" as="geometry" />
        </mxCell>
        <object placeholders="1" c4Type="Relationship" c4Description="&#xa;" label="&lt;div style=&quot;text-align: left&quot;&gt;&lt;div style=&quot;text-align: center&quot;&gt;&lt;b&gt;%c4Description%&lt;/b&gt;&lt;/div&gt;" id="ned7DRIrQuuD62e_DKzl-20">
          <mxCell style="endArrow=ERmany;html=1;fontSize=10;fontColor=#404040;strokeWidth=1;endFill=0;strokeColor=#828282;elbow=vertical;metaEdit=1;endSize=14;startSize=14;jumpStyle=none;jumpSize=16;rounded=0;edgeStyle=orthogonalEdgeStyle;" parent="1" source="ned7DRIrQuuD62e_DKzl-2" target="ned7DRIrQuuD62e_DKzl-19" edge="1">
            <mxGeometry width="240" relative="1" as="geometry">
              <mxPoint x="450" y="370" as="sourcePoint" />
              <mxPoint x="480" y="430" as="targetPoint" />
              <Array as="points">
                <mxPoint x="450" y="430" />
              </Array>
            </mxGeometry>
          </mxCell>
        </object>
        <mxCell id="JUIpug5xIYMz4m7np4fu-1" value="UI Component Policy" style="rounded=1;whiteSpace=wrap;html=1;fontSize=15;fillColor=#f9f7ed;strokeColor=#36393d;" vertex="1" parent="1">
          <mxGeometry x="340" y="560" width="120" height="60" as="geometry" />
        </mxCell>
        <object placeholders="1" c4Type="Relationship" c4Description="&#xa;" label="&lt;div style=&quot;text-align: left&quot;&gt;&lt;div style=&quot;text-align: center&quot;&gt;&lt;b&gt;%c4Description%&lt;/b&gt;&lt;/div&gt;" id="JUIpug5xIYMz4m7np4fu-2">
          <mxCell style="endArrow=ERmany;html=1;fontSize=10;fontColor=#404040;strokeWidth=1;endFill=0;strokeColor=#828282;elbow=vertical;metaEdit=1;endSize=14;startSize=14;jumpStyle=none;jumpSize=16;rounded=0;edgeStyle=orthogonalEdgeStyle;" edge="1" parent="1" source="Cw2vZzmatBAaSTgnXfGu-1" target="JUIpug5xIYMz4m7np4fu-1">
            <mxGeometry width="240" relative="1" as="geometry">
              <mxPoint x="320" y="300" as="sourcePoint" />
              <mxPoint x="290" y="680" as="targetPoint" />
              <Array as="points">
                <mxPoint x="310" y="590" />
              </Array>
            </mxGeometry>
          </mxCell>
        </object>
      </root>
    </mxGraphModel>
  </diagram>
  <diagram id="0TxLIhIXcczjR4XhPntt" name="policy">
    <mxGraphModel dx="983" dy="890" grid="1" gridSize="10" guides="1" tooltips="1" connect="1" arrows="1" fold="1" page="1" pageScale="1" pageWidth="827" pageHeight="1169" math="0" shadow="0">
      <root>
        <mxCell id="0" />
        <mxCell id="1" parent="0" />
        <mxCell id="pvbigThi0gEl8q8rdAVi-1" value="Policy" style="rounded=1;whiteSpace=wrap;html=1;fontSize=15;fillColor=#f9f7ed;strokeColor=#36393d;" parent="1" vertex="1">
          <mxGeometry x="330" y="110" width="120" height="60" as="geometry" />
        </mxCell>
        <mxCell id="pvbigThi0gEl8q8rdAVi-2" value="Target Object" style="rounded=1;whiteSpace=wrap;html=1;fontSize=15;fillColor=#cce5ff;strokeColor=#36393d;" parent="1" vertex="1">
          <mxGeometry x="250" y="220" width="120" height="60" as="geometry" />
        </mxCell>
        <mxCell id="pvbigThi0gEl8q8rdAVi-4" value="Access Type" style="rounded=1;whiteSpace=wrap;html=1;fontSize=15;fillColor=#ffcccc;strokeColor=#36393d;" parent="1" vertex="1">
          <mxGeometry x="420" y="220" width="120" height="60" as="geometry" />
        </mxCell>
        <object placeholders="1" c4Type="Relationship" id="DZM_oUgFxa7xsiHP1c2c-1">
          <mxCell style="endArrow=blockThin;html=1;fontSize=10;fontColor=#404040;strokeWidth=1;endFill=1;strokeColor=#828282;elbow=vertical;metaEdit=1;endSize=14;startSize=14;jumpStyle=arc;jumpSize=16;rounded=0;edgeStyle=orthogonalEdgeStyle;" parent="1" source="pvbigThi0gEl8q8rdAVi-1" target="pvbigThi0gEl8q8rdAVi-2" edge="1">
            <mxGeometry width="240" relative="1" as="geometry">
              <mxPoint x="290" y="450" as="sourcePoint" />
              <mxPoint x="530" y="450" as="targetPoint" />
              <Array as="points">
                <mxPoint x="370" y="195" />
                <mxPoint x="310" y="195" />
              </Array>
            </mxGeometry>
          </mxCell>
        </object>
        <object placeholders="1" c4Type="Relationship" id="DZM_oUgFxa7xsiHP1c2c-2">
          <mxCell style="endArrow=blockThin;html=1;fontSize=10;fontColor=#404040;strokeWidth=1;endFill=1;strokeColor=#828282;elbow=vertical;metaEdit=1;endSize=14;startSize=14;jumpStyle=arc;jumpSize=16;rounded=0;edgeStyle=orthogonalEdgeStyle;" parent="1" source="pvbigThi0gEl8q8rdAVi-1" target="pvbigThi0gEl8q8rdAVi-4" edge="1">
            <mxGeometry width="240" relative="1" as="geometry">
              <mxPoint x="350" y="340" as="sourcePoint" />
              <mxPoint x="590" y="340" as="targetPoint" />
              <Array as="points">
                <mxPoint x="410" y="195" />
                <mxPoint x="480" y="195" />
              </Array>
            </mxGeometry>
          </mxCell>
        </object>
      </root>
    </mxGraphModel>
  </diagram>
</mxfile>
